<?xml version="1.0" standalone="no"?>
<!DOCTYPE svg PUBLIC "-//W3C//DTD SVG 20010904//EN"
 "http://www.w3.org/TR/2001/REC-SVG-20010904/DTD/svg10.dtd">
<svg version="1.0" xmlns="http://www.w3.org/2000/svg"
 width="768.000000pt" height="251.000000pt" viewBox="0 0 768.000000 251.000000"
 preserveAspectRatio="xMidYMid meet">

<g transform="translate(0.000000,251.000000) scale(0.100000,-0.100000)"
fill="#000000" stroke="none">
<path d="M1069 2478 c-7 -13 -23 -34 -35 -47 -13 -13 -24 -32 -24 -42 0 -9 -5
-19 -11 -21 -8 -3 -9 -10 -2 -23 15 -29 17 -165 2 -165 -6 0 -9 -8 -6 -20 4
-16 0 -20 -18 -20 -25 0 -41 -28 -25 -44 20 -20 9 -36 -54 -76 -152 -96 -256
-269 -256 -425 0 -29 -4 -35 -20 -35 -19 0 -20 -4 -14 -37 4 -21 11 -48 15
-61 5 -13 9 -55 9 -93 l0 -69 -99 0 -100 0 4 -42 c2 -24 11 -48 20 -54 8 -6
15 -19 15 -28 0 -9 6 -16 14 -16 12 0 14 -32 13 -181 l-2 -181 -235 -94 c-216
-85 -231 -93 -188 -93 39 -1 136 34 529 189 264 104 487 190 494 190 8 0 231
-86 496 -190 409 -161 490 -190 527 -188 41 3 28 9 -190 95 l-233 92 -1 180
c-1 146 2 181 12 181 8 0 14 7 14 16 0 9 7 22 15 28 9 6 18 30 20 54 l4 42
-100 0 -101 0 5 78 c4 71 13 119 32 165 6 14 2 17 -19 17 -23 0 -26 4 -26 35
0 156 -104 329 -256 425 -63 40 -74 56 -54 76 16 16 0 44 -25 44 -18 0 -22 4
-18 20 3 12 0 20 -6 20 -15 0 -13 136 2 165 7 13 6 20 -2 23 -6 2 -11 10 -11
17 0 7 -16 32 -35 55 -19 23 -35 46 -35 51 0 18 -30 8 -41 -13z m11 -98 c0
-23 -4 -30 -20 -30 -24 0 -26 17 -3 42 21 24 23 23 23 -12z m70 -21 c0 -5 -9
-9 -20 -9 -16 0 -20 7 -20 33 l1 32 19 -24 c11 -13 20 -27 20 -32z m-80 -119
c0 -47 -3 -60 -15 -60 -12 0 -15 13 -15 60 0 47 3 60 15 60 12 0 15 -13 15
-60z m80 0 c0 -47 -3 -60 -15 -60 -12 0 -15 13 -15 60 0 47 3 60 15 60 12 0
15 -13 15 -60z m20 -120 c0 -18 -7 -20 -75 -20 -68 0 -75 2 -75 20 0 18 7 20
75 20 68 0 75 -2 75 -20z m38 -62 c3 -16 -7 -18 -112 -18 -90 0 -116 3 -116
13 0 25 13 28 119 25 91 -3 106 -5 109 -20z m-165 -72 c-4 -6 -21 -29 -39 -51
-57 -72 -94 -165 -109 -277 l-6 -48 49 0 49 0 12 113 c16 164 48 277 77 277
12 0 15 -6 11 -22 -28 -132 -46 -235 -50 -295 l-6 -73 65 0 65 0 -7 78 c-5 67
-33 227 -50 288 -5 20 -2 21 63 22 81 1 120 -18 199 -98 81 -82 134 -196 134
-292 l0 -38 -405 0 -405 0 0 38 c0 93 47 199 123 279 77 81 130 113 188 111
33 0 46 -4 42 -12z m497 -471 c0 -13 -56 -15 -445 -15 -389 0 -445 2 -445 15
0 13 56 15 445 15 389 0 445 -2 445 -15z m-822 -138 c2 -64 0 -77 -13 -77 -12
0 -15 15 -15 81 0 60 3 80 13 77 8 -3 13 -31 15 -81z m120 0 c3 -77 3 -77 -23
-77 -24 0 -25 1 -25 73 0 77 4 90 30 85 12 -3 16 -20 18 -81z m130 71 c7 -7
12 -40 12 -80 l0 -68 -35 0 -35 0 0 68 c0 65 10 92 35 92 6 0 16 -5 23 -12z
m150 0 c7 -7 12 -42 12 -86 l0 -73 -32 3 -33 3 -3 68 c-4 85 20 121 56 85z
m160 -75 l3 -83 -36 0 -35 0 0 78 c0 43 3 82 7 86 4 4 19 6 33 4 24 -3 25 -6
28 -85z m120 -1 c3 -82 2 -83 -20 -80 -21 3 -23 9 -26 72 -3 80 1 99 25 94 15
-3 18 -16 21 -86z m107 55 c11 -56 2 -132 -15 -132 -12 0 -16 16 -18 69 -2 38
-1 75 2 83 9 23 25 14 31 -20z m185 -181 c0 -2 -3 -11 -6 -20 -6 -14 -67 -16
-590 -16 -321 0 -584 2 -584 4 0 2 -3 11 -6 20 -6 14 51 16 590 16 328 0 596
-2 596 -4z m-1051 -239 l2 -153 -34 -12 c-18 -7 -37 -12 -41 -12 -3 0 -6 74
-5 165 l1 165 38 0 37 0 2 -153z m140 28 l2 -124 -37 -16 c-20 -8 -38 -15 -41
-15 -2 0 -3 63 -2 140 l3 140 37 0 37 0 1 -125z m145 79 c3 -26 6 -69 6 -95 0
-47 -2 -49 -36 -64 -20 -8 -41 -15 -46 -15 -5 0 -8 45 -6 110 l3 110 36 0 c36
0 36 -1 43 -46z m140 0 c10 -74 8 -83 -24 -99 -56 -29 -61 -24 -58 65 l3 80
36 0 c36 0 36 -1 43 -46z m144 -39 l3 -86 -37 16 c-20 8 -38 15 -40 15 -2 0
-4 32 -4 70 l0 70 38 0 37 0 3 -85z m141 -25 c1 -60 -1 -110 -4 -110 -3 0 -21
7 -40 14 l-35 15 0 95 0 96 38 0 39 0 2 -110z m140 -30 l2 -141 -37 16 c-20 8
-38 15 -40 15 -2 0 -4 56 -4 125 l0 125 39 0 38 0 2 -140z m140 -25 c1 -114
-1 -165 -9 -165 -6 0 -24 7 -41 16 l-30 15 2 150 2 149 37 0 38 0 1 -165z"/>
<path d="M946 1959 c-106 -70 -179 -167 -202 -268 -20 -83 -21 -81 45 -81 l59
0 11 78 c13 88 61 198 111 255 18 21 31 40 28 42 -3 3 -26 -9 -52 -26z"/>
<path d="M1140 1989 c0 -2 11 -47 24 -99 13 -52 27 -137 31 -188 l8 -92 48 0
c57 0 56 -1 34 105 -17 79 -70 193 -115 245 -17 19 -30 32 -30 29z"/>
<path d="M1190 1984 c0 -3 14 -22 31 -42 49 -56 97 -167 110 -254 l11 -78 60
0 59 0 -6 48 c-10 74 -60 168 -124 231 -52 51 -141 112 -141 95z"/>
<path d="M4163 2360 c-98 -20 -177 -81 -220 -168 l-28 -57 -3 -762 -2 -763
115 0 115 0 0 449 0 449 243 4 c223 3 245 5 282 25 22 11 48 29 57 40 27 29
48 88 48 133 l0 40 -315 0 -315 0 0 164 c0 150 2 165 21 190 l20 26 450 0 449
0 0 43 c0 47 -27 113 -56 139 -11 10 -38 25 -59 35 -36 15 -81 18 -400 20
-198 1 -379 -2 -402 -7z"/>
<path d="M7440 1955 c0 -153 -4 -147 86 -120 83 24 136 95 148 198 l7 57 -120
0 -121 0 0 -135z"/>
<path d="M7591 1745 c-56 -17 -106 -66 -128 -124 -16 -42 -18 -92 -18 -526 l0
-480 118 -3 117 -3 0 576 0 575 -22 -1 c-13 0 -43 -6 -67 -14z"/>
<path d="M2739 1740 c-67 -12 -121 -43 -172 -100 -75 -83 -77 -97 -77 -470 l0
-327 31 -61 c36 -73 92 -124 166 -152 50 -19 78 -20 412 -20 392 0 428 4 483
57 28 27 58 104 58 150 l0 23 -435 0 -436 0 -24 25 c-22 22 -25 32 -25 105 l0
80 368 0 c433 0 434 0 523 89 72 73 89 121 89 256 0 135 -17 183 -89 256 -92
91 -98 93 -491 95 -184 1 -356 -1 -381 -6z m711 -252 c30 -33 29 -152 -2 -185
l-21 -23 -354 0 -353 0 0 95 c0 145 -29 135 375 135 331 0 334 0 355 -22z"/>
<path d="M5103 1734 c-57 -21 -128 -86 -161 -148 l-27 -51 -3 -462 -3 -463
116 0 115 0 0 433 0 434 23 21 c23 22 28 22 361 22 l338 0 -7 43 c-14 83 -58
143 -127 172 -53 22 -562 21 -625 -1z"/>
<path d="M6240 1737 c-30 -7 -66 -19 -78 -26 -46 -25 -104 -85 -130 -135 l-27
-51 -3 -331 c-3 -316 -2 -333 18 -387 26 -68 86 -134 155 -167 50 -25 50 -25
418 -28 419 -3 451 1 505 63 32 35 52 89 52 138 l0 27 -435 0 -436 0 -25 25
c-23 23 -25 31 -22 102 l3 78 380 5 c370 5 381 6 426 28 61 30 116 86 145 147
21 44 24 65 24 170 0 105 -3 126 -24 170 -31 65 -88 121 -156 154 l-55 26
-340 2 c-243 2 -356 -1 -395 -10z m720 -247 c16 -16 20 -33 20 -95 0 -123 26
-115 -395 -115 l-355 0 0 89 c0 74 3 92 21 115 l20 26 335 0 c321 0 335 -1
354 -20z"/>
<path d="M693 766 c-346 -137 -377 -151 -338 -154 36 -3 102 20 390 133 190
76 354 135 363 132 9 -2 167 -64 351 -136 277 -109 341 -131 377 -129 39 3 5
18 -344 156 -214 83 -395 152 -403 151 -7 -1 -186 -69 -396 -153z"/>
<path d="M2832 240 c-7 -11 -8 -20 -4 -20 5 0 17 9 27 20 14 15 15 20 4 20 -8
0 -20 -9 -27 -20z"/>
<path d="M7620 240 c-6 -11 -7 -20 -2 -20 5 0 17 9 27 20 16 18 16 20 2 20 -9
0 -21 -9 -27 -20z"/>
<path d="M0 100 c0 -60 4 -100 10 -100 6 0 10 16 10 35 0 33 2 35 33 35 42 0
67 26 67 68 0 43 -23 62 -76 62 l-44 0 0 -100z m94 48 c12 -35 -6 -58 -45 -58
-27 0 -29 3 -29 38 0 46 6 54 39 50 17 -2 29 -12 35 -30z"/>
<path d="M280 155 c-11 -26 -25 -67 -31 -91 -13 -51 -6 -81 10 -41 9 24 16 27
55 27 38 0 45 -3 50 -25 7 -28 26 -34 26 -7 0 9 -13 53 -28 97 -34 99 -53 108
-82 40z m70 -72 c0 -8 -14 -13 -35 -13 -40 0 -43 11 -19 68 l16 37 19 -40 c10
-22 19 -46 19 -52z"/>
<path d="M530 100 c0 -60 4 -100 10 -100 6 0 10 18 10 40 0 65 38 53 86 -26 7
-11 15 -16 19 -12 4 4 -2 24 -14 44 -20 33 -20 38 -6 54 20 23 19 63 -3 83
-11 10 -36 17 -60 17 l-42 0 0 -100z m85 40 c0 -32 -3 -35 -32 -38 -32 -3 -33
-3 -33 38 0 41 1 41 33 38 29 -3 32 -6 32 -38z"/>
<path d="M800 100 c0 -60 4 -100 10 -100 6 0 10 40 10 100 0 60 -4 100 -10
100 -6 0 -10 -40 -10 -100z"/>
<path d="M986 185 c-19 -20 -21 -58 -3 -73 6 -6 24 -13 39 -17 66 -17 60 -65
-8 -65 -44 0 -58 -12 -28 -24 46 -18 104 9 104 48 0 27 -25 52 -62 61 -58 15
-34 72 25 61 20 -4 27 -2 25 7 -7 19 -73 21 -92 2z"/>
<path d="M1400 99 c0 -76 3 -100 13 -97 6 3 13 19 15 36 3 28 7 32 32 32 38 0
60 24 60 65 0 46 -22 65 -76 65 l-44 0 0 -101z m88 69 c28 -28 7 -78 -34 -78
-17 0 -23 8 -27 37 -4 20 -4 40 -1 45 8 12 48 10 62 -4z"/>
<path d="M1695 191 c-12 -20 -55 -154 -55 -173 0 -27 17 -22 24 7 6 22 12 25
51 25 39 0 45 -3 51 -25 8 -31 24 -33 23 -2 -1 42 -53 172 -71 175 -9 2 -19
-2 -23 -7z m35 -46 c5 -14 13 -37 16 -50 6 -23 3 -25 -30 -25 -41 0 -44 9 -21
64 18 43 22 44 35 11z"/>
<path d="M1930 101 c0 -116 18 -139 22 -28 l3 72 54 -73 c32 -44 57 -70 63
-64 14 14 6 185 -9 190 -10 3 -13 -15 -13 -69 l0 -74 -51 70 c-28 39 -55 72
-60 73 -5 2 -9 -40 -9 -97z"/>
<path d="M2210 190 c0 -5 14 -10 30 -10 l30 0 0 -90 c0 -116 18 -118 22 -2 l3
87 33 3 c18 2 30 8 27 13 -8 12 -145 12 -145 -1z"/>
<path d="M2490 100 c0 -102 16 -140 22 -52 l3 47 45 0 45 0 3 -47 c6 -88 22
-50 22 52 0 60 -4 100 -10 100 -5 0 -10 -18 -10 -40 l0 -40 -50 0 -50 0 0 40
c0 22 -4 40 -10 40 -6 0 -10 -40 -10 -100z"/>
<path d="M2780 122 c0 -98 14 -122 71 -122 21 0 39 5 39 10 0 6 -11 10 -24 10
-42 0 -56 11 -56 41 0 26 3 29 35 29 24 0 35 5 35 15 0 10 -11 15 -35 15 -32
0 -35 2 -35 30 0 28 2 30 40 30 22 0 40 5 40 10 0 6 -25 10 -55 10 l-55 0 0
-78z"/>
<path d="M3054 176 c-24 -20 -28 -31 -28 -75 0 -65 26 -95 80 -95 70 0 106 82
69 153 -24 48 -77 55 -121 17z m88 -13 c13 -11 18 -30 18 -63 0 -53 -15 -73
-55 -73 -40 1 -55 20 -55 74 0 38 4 51 22 63 29 20 47 20 70 -1z"/>
<path d="M3330 101 c0 -116 18 -139 22 -28 l3 72 53 -73 c30 -39 58 -70 63
-66 5 3 9 48 9 100 0 77 -3 94 -15 94 -12 0 -15 -15 -15 -72 l0 -72 -50 69
c-28 39 -55 72 -60 73 -6 2 -10 -36 -10 -97z"/>
<path d="M3872 183 c-20 -38 -53 -154 -48 -166 3 -7 7 -3 11 11 6 19 14 22 55
22 40 0 50 -4 55 -20 3 -11 10 -20 15 -20 9 0 -25 121 -46 163 -17 31 -30 34
-42 10z m54 -87 c6 -25 4 -26 -35 -26 -48 0 -49 6 -20 70 l21 45 14 -31 c7
-17 16 -43 20 -58z"/>
<path d="M4133 190 c-52 -21 -35 -74 30 -96 62 -21 41 -80 -25 -71 -21 3 -38
1 -38 -4 0 -16 87 -10 105 7 28 28 14 57 -37 82 -27 12 -48 28 -48 35 0 23 23
37 60 37 26 0 31 3 20 10 -18 12 -38 12 -67 0z"/>
<path d="M4384 190 c-48 -19 -32 -75 27 -95 64 -22 44 -81 -23 -72 -21 3 -38
1 -38 -4 0 -6 24 -9 52 -7 47 3 54 6 62 30 12 34 -10 63 -55 72 -60 12 -44 66
20 66 27 0 32 3 21 10 -18 12 -38 12 -66 0z"/>
<path d="M4642 148 c-11 -29 -22 -63 -26 -75 -3 -13 -9 -32 -12 -43 -3 -11 -1
-20 5 -20 6 0 11 9 11 20 0 17 7 20 51 20 42 0 52 -3 56 -20 3 -11 10 -20 15
-20 5 0 7 9 4 20 -3 11 -9 30 -12 43 -19 65 -47 127 -59 127 -7 0 -22 -24 -33
-52z m61 -30 l16 -48 -44 0 c-43 0 -43 0 -35 28 28 95 37 98 63 20z"/>
<path d="M4913 190 c-17 -7 -23 -18 -23 -39 0 -32 8 -40 55 -56 22 -7 31 -17
33 -37 3 -22 -2 -29 -22 -34 -14 -3 -38 -3 -52 0 -17 5 -23 3 -19 -4 10 -15
91 -12 104 4 7 8 11 27 9 43 -2 23 -10 30 -43 41 -46 15 -57 29 -44 54 7 12
21 18 47 18 28 0 33 3 22 10 -18 12 -38 12 -67 0z"/>
<path d="M5313 184 c-11 -28 4 -145 21 -162 24 -25 85 -21 107 7 25 30 28 171
4 171 -11 0 -15 -18 -17 -82 l-3 -83 -34 -3 c-44 -4 -51 7 -51 96 0 68 -12 94
-27 56z"/>
<path d="M5610 101 c0 -116 18 -139 22 -29 l3 73 48 -67 c26 -37 52 -70 57
-73 6 -4 10 31 10 94 0 115 -18 139 -22 30 l-3 -71 -48 66 c-27 36 -53 68 -58
71 -5 4 -9 -35 -9 -94z"/>
<path d="M5902 103 c2 -66 7 -98 16 -101 9 -3 12 21 12 97 0 84 -3 101 -15
101 -13 0 -15 -15 -13 -97z"/>
<path d="M6060 196 c0 -12 44 -145 56 -168 28 -55 48 -30 88 111 9 30 14 56
12 59 -8 7 -26 -9 -26 -23 0 -7 -9 -44 -21 -81 -19 -62 -22 -66 -35 -50 -7 10
-21 49 -31 87 -10 40 -23 69 -30 69 -7 0 -13 -2 -13 -4z"/>
<path d="M6350 122 c0 -98 14 -122 71 -122 21 0 39 5 39 10 0 6 -11 10 -24 10
-42 0 -56 11 -56 41 0 26 3 29 35 29 24 0 35 5 35 15 0 10 -11 15 -35 15 -32
0 -35 2 -35 30 0 28 2 30 40 30 22 0 40 5 40 10 0 6 -25 10 -55 10 l-55 0 0
-78z"/>
<path d="M6610 100 c0 -60 4 -100 10 -100 6 0 10 18 10 40 0 65 38 53 86 -26
7 -11 15 -16 19 -12 4 4 -2 23 -14 43 -19 33 -20 38 -6 58 36 51 5 97 -63 97
l-42 0 0 -100z m85 40 c0 -32 -3 -35 -32 -38 -32 -3 -33 -3 -33 38 0 41 1 41
33 38 29 -3 32 -6 32 -38z"/>
<path d="M6891 181 c-37 -37 -21 -70 44 -91 29 -9 35 -17 33 -33 -3 -19 -11
-22 -50 -25 -56 -4 -63 -18 -13 -28 48 -9 85 16 85 56 0 31 -8 39 -55 55 -40
13 -47 52 -12 60 13 4 31 5 40 3 9 -2 17 2 19 7 2 6 -14 11 -34 13 -27 2 -43
-3 -57 -17z"/>
<path d="M7132 103 c2 -66 7 -98 16 -101 9 -3 12 21 12 97 0 84 -3 101 -15
101 -13 0 -15 -15 -13 -97z"/>
<path d="M7290 190 c0 -5 14 -10 30 -10 l30 0 0 -91 c0 -68 3 -90 13 -87 8 3
13 33 15 91 l3 87 29 0 c17 0 30 5 30 10 0 6 -32 10 -75 10 -43 0 -75 -4 -75
-10z"/>
<path d="M7570 116 c0 -95 6 -105 70 -113 33 -5 40 -3 40 11 0 12 -10 16 -39
16 -26 0 -41 5 -45 16 -13 35 -7 44 34 44 29 0 40 4 40 15 0 11 -11 15 -41 15
-38 0 -40 1 -37 28 3 24 7 27 46 30 61 5 52 22 -13 22 l-55 0 0 -84z"/>
<path d="M3620 100 c0 -5 16 -10 35 -10 19 0 35 5 35 10 0 6 -16 10 -35 10
-19 0 -35 -4 -35 -10z"/>
</g>
</svg>
